<svg width="171" height="31" viewBox="0 0 171 31" fill="none" xmlns="http://www.w3.org/2000/svg">
<path d="M6.53125 24.0625L0 1.4375H5.875L9.34375 16.4375H9.53125L13.4688 1.4375H18.3125L22.2812 16.4688H22.4375L25.9375 1.4375H31.8125L25.25 24.0625H20.125L16 10.125H15.8125L11.6875 24.0625H6.53125ZM34.0312 24.0625V7.09375H39.3125V24.0625H34.0312ZM36.6875 5.0625C35.1875 5.0625 33.9688 3.9375 33.9688 2.53125C33.9688 1.125 35.1875 0 36.6875 0C38.1875 0 39.4375 1.125 39.4375 2.53125C39.4375 3.9375 38.1875 5.0625 36.6875 5.0625ZM52.1562 7.09375V10.9688H49.0625V18.75C49.0625 19.8125 49.5938 20.125 50.5 20.1562C50.9375 20.1875 51.7812 20.125 52.375 20.0938V24.125C51.875 24.1875 51 24.3125 49.75 24.3125C46.0312 24.3125 43.7812 22.7812 43.8125 19.3438V10.9688H41.5312V7.09375H43.8125V3.03125H49.0625V7.09375H52.1562ZM60.5312 14.3438V24.0625H55.25V1.4375H60.3438V10.1875H60.5312C61.3125 8.125 63.0938 6.875 65.625 6.875C69.1875 6.875 71.5312 9.375 71.5312 13.25V24.0625H66.25V14.25C66.2812 12.3438 65.25 11.1875 63.4688 11.1875C61.7188 11.1875 60.5312 12.375 60.5312 14.3438ZM74.875 24.0625V1.4375H84.2188C89.2812 1.4375 91.9062 3.75 91.9062 7.1875C91.9062 9.78125 90.1562 11.5625 87.6875 12.0625V12.2812C90.4062 12.4062 92.7812 14.4688 92.7812 17.75C92.7812 21.4062 89.9375 24.0625 84.9375 24.0625H74.875ZM83.6875 19.75C86.125 19.75 87.2188 18.7812 87.2188 17.1562C87.2188 15.375 85.9062 14.25 83.7812 14.25H80.1875V19.75H83.6875ZM83.3438 10.7812C85.1562 10.7812 86.4688 9.8125 86.4688 8.1875C86.4688 6.65625 85.3125 5.6875 83.4062 5.6875H80.1875V10.7812H83.3438ZM106.312 16.75V7.09375H111.562V24.0625H106.562V20.9375H106.375C105.625 22.9688 103.75 24.2812 101.188 24.2812C97.7188 24.2812 95.375 21.7812 95.375 17.9062V7.09375H100.656V16.9062C100.656 18.75 101.688 19.9062 103.375 19.9062C105 19.9062 106.312 18.7812 106.312 16.75ZM121.188 24.3125C117.406 24.3125 114.375 21.3438 114.375 15.5938C114.375 9.625 117.594 6.875 121.156 6.875C123.875 6.875 125.312 8.46875 125.969 10H126.094V1.4375H131.344V24.0625H126.125V21.3125H125.969C125.281 22.8438 123.781 24.3125 121.188 24.3125ZM122.969 20.1875C125 20.1875 126.188 18.375 126.188 15.5625C126.188 12.75 125.031 11 122.969 11C120.906 11 119.781 12.8125 119.781 15.5625C119.781 18.375 120.938 20.1875 122.969 20.1875ZM140.969 24.3125C137.188 24.3125 134.156 21.3438 134.156 15.5938C134.156 9.625 137.375 6.875 140.938 6.875C143.656 6.875 145.094 8.46875 145.75 10H145.875V1.4375H151.125V24.0625H145.906V21.3125H145.75C145.062 22.8438 143.562 24.3125 140.969 24.3125ZM142.75 20.1875C144.781 20.1875 145.969 18.375 145.969 15.5625C145.969 12.75 144.812 11 142.75 11C140.688 11 139.562 12.8125 139.562 15.5625C139.562 18.375 140.719 20.1875 142.75 20.1875ZM157.594 30.4375C156.594 30.4375 155.656 30.4062 154.969 30.3438V26.3438C155.656 26.4062 156.406 26.4062 157.031 26.4062C157.906 26.4062 158.562 26.3125 159.031 25.1875L159.219 24.6562L153.188 7.09375H158.688L161.906 19.2812H162.094L165.312 7.09375H170.875L164.438 25.7188C163.5 28.5 161.562 30.4375 157.594 30.4375Z" fill="#204867"/>
</svg>
