<svg width="34" height="27" viewBox="0 0 34 27" fill="none" xmlns="http://www.w3.org/2000/svg">
<path d="M32.4342 16.3801H30.0293V11.3752H30.8743H31.7193V12.2202H32.4342V16.3801Z" fill="black" stroke="black" stroke-width="0.779984"/>
<path d="M0.390137 5.78491V8.77485H1.17012V9.68483H3.90007V11.5698H2.92509V18.5247H3.90007V20.9946H4.61505V21.9696H5.46004V22.8796H6.37002V23.8545H7.28V24.6345H8.96996V25.6095H11.5699V26.3895H21.7097V25.6095H23.3997V24.6345H25.2196V23.7245H26.7796V21.9696H27.3646H28.2746V21.0596V18.7846H29.5096V15.1447V12.0248H29.0546V10.8769H27.9496V9.77191L32.0445 9.68483V8.77485H32.8245V5.84991H32.0445V4.93992H31.1995V4.09494H30.3545V3.18496H29.5096V2.20998H28.6646V1.42999H26.0646V0.390015H21.8397V1.365H20.9947V2.20998H12.3499V1.365H11.3749V0.510679L7.15 0.520012V1.365H4.68005V2.20998H3.77007V3.05496H2.92509V4.02994H2.1451V4.87493H1.17012V5.78491H0.390137Z" fill="white" stroke="black" stroke-width="0.779984"/>
<path d="M29.5097 9.68568H26.0647V8.9057H24.3098V8.06071H23.3998V7.21573H22.6198V6.24075H21.7748V5.39577H20.9948V2.34082L19.1748 2.34082H13.975L12.35 2.34082V2.79582V5.46077L11.375 5.46076V6.30575H10.595V7.15073H9.68505V8.06071H8.84007V8.9707H7.04756V9.68568H4.05762" stroke="black" stroke-width="0.779984"/>
<path d="M13.6032 18.5252H8.38215V17.6152H5.63776V16.7702H4.76759V15.8603H3.96436V12.4153H4.76759V11.5053H5.63776V10.5954H8.38215V9.68538H11.8628V8.9054H20.6315V9.68538H24.2461V10.5954H26.8566V11.5053H27.7937V12.4153H28.6639V15.8603H27.7937V16.7702H26.8566V17.6152H24.2461V18.5252H18.9581V17.6152H17.954V16.7702H14.5403V17.6152H13.6032V18.5252Z" fill="#336B97"/>
<path d="M18.3295 17.6805H19.1744V18.4605H18.3295V19.2405H17.4845V20.9955H15.7945V19.2405H14.8845V18.4605H14.0396V17.6805H14.8845V16.7056H18.3295V17.6805Z" fill="black" stroke="black" stroke-width="0.129997"/>
<path d="M30.5498 12.2216H31.7198V15.7315H30.5498V12.2216Z" fill="#336B97"/>
<path d="M30.6797 16.5758H31.5897V19.0458H30.6797V16.5758Z" fill="black"/>
<path d="M30.4189 18.9159H31.5889V19.8259H30.4189V18.9159Z" fill="black"/>
<path d="M29.5073 19.8242H30.4173V20.7342H29.5073V19.8242Z" fill="black"/>
<path d="M29.5073 18.9159H30.4173V19.8259H29.5073V18.9159Z" fill="black"/>
<path d="M30.4189 20.3461V21.2561H24.1791V20.3461H30.4189Z" fill="black"/>
<path d="M23.5292 16.7714H20.0843V15.8614H19.1743V12.3515H20.0843V11.4415H23.5292V12.3515H24.3742V15.8614H23.5292V16.7714Z" fill="white"/>
<path d="M13.1943 16.7714H9.74934V15.8614H8.83936V12.3515H9.74934V11.4415H13.1943V12.3515H14.0393V15.8614H13.1943V16.7714Z" fill="white"/>
<path d="M21.7737 12.3499V13.2598H20.9287V14.9498H21.7737V15.8598H23.5287V14.9498H24.3736V12.3499H23.5287V13.2598H22.6187V12.3499H21.7737Z" fill="black" stroke="black" stroke-width="0.129997"/>
<path d="M11.4402 12.3499V13.2598H10.5952V14.9498H11.4402V15.8598H13.1952V14.9498H14.0401V12.3499H13.1952V13.2598H12.2852V12.3499H11.4402Z" fill="black" stroke="black" stroke-width="0.129997"/>
<path d="M19.1743 21.125H17.4844V21.9699H20.0193V21.06H20.9293V19.37H20.1493V20.215H19.1743V21.125Z" fill="black" stroke="black" stroke-width="0.129997"/>
<path d="M14.1059 21.125H15.7959V21.9699H13.2609V21.06H12.351V19.37H13.131V20.215H14.1059V21.125Z" fill="black" stroke="black" stroke-width="0.129997"/>
<path d="M24.3735 21.9697H21.0586V20.2147H21.9036V19.4998H24.3735V21.9697Z" fill="black"/>
</svg>
