<svg width="24" height="24" viewBox="0 0 24 24" fill="none" xmlns="http://www.w3.org/2000/svg">
<path d="M10.9249 2.35998C11.0946 2.46369 11.2162 2.63057 11.2629 2.82392C11.3096 3.01727 11.2776 3.22125 11.1739 3.39099C11.0975 3.51559 11.0653 3.66232 11.0825 3.80748C11.0998 3.95263 11.1654 4.08774 11.2689 4.19099L11.3669 4.28899C11.9549 4.87699 12.1719 5.74199 11.9309 6.53899C11.905 6.63614 11.8598 6.72709 11.798 6.80643C11.7362 6.88576 11.659 6.95185 11.5712 7.00078C11.4833 7.0497 11.3865 7.08046 11.2865 7.09122C11.1866 7.10198 11.0854 7.09252 10.9892 7.06341C10.8929 7.0343 10.8035 6.98613 10.7262 6.92176C10.649 6.85739 10.5854 6.77815 10.5394 6.68873C10.4934 6.59932 10.4658 6.50156 10.4584 6.40128C10.4509 6.301 10.4637 6.20023 10.4959 6.10498C10.5354 5.97356 10.5387 5.83388 10.5052 5.70077C10.4718 5.56766 10.4029 5.4461 10.3059 5.34898L10.2079 5.25098C9.86664 4.90975 9.65011 4.46362 9.59315 3.98439C9.5362 3.50516 9.64213 3.0207 9.89391 2.60899C9.99761 2.43925 10.1645 2.31766 10.3578 2.27096C10.5512 2.22427 10.7552 2.25629 10.9249 2.35998ZM19.9729 7.04699C19.8349 7.09999 19.7129 7.22299 19.4669 7.46799C19.2209 7.71398 19.0989 7.83599 19.0449 7.97499C18.9826 8.13686 18.9826 8.31611 19.0449 8.47798C19.0989 8.61598 19.2209 8.73899 19.4669 8.98498C19.7119 9.22998 19.8349 9.35299 19.9729 9.40599C20.1351 9.46856 20.3147 9.46856 20.4769 9.40599C20.6149 9.35299 20.7369 9.22998 20.9829 8.98498C21.2279 8.73899 21.3509 8.61598 21.4039 8.47798C21.4662 8.31611 21.4662 8.13686 21.4039 7.97499C21.3509 7.83599 21.2289 7.71398 20.9839 7.46799C20.7379 7.22299 20.6149 7.09999 20.4769 7.04699C20.3147 6.98441 20.1351 6.98441 19.9729 7.04699ZM21.4069 12.56C21.2298 12.4821 21.0341 12.4567 20.843 12.4869C20.6519 12.517 20.4734 12.6014 20.3289 12.73C19.9345 13.0804 19.4397 13.2975 18.9148 13.3507C18.3899 13.4038 17.8616 13.2902 17.4049 13.026L17.1929 12.903C17.0221 12.8028 16.8977 12.6391 16.8471 12.4477C16.7965 12.2562 16.8237 12.0525 16.9227 11.881C17.0217 11.7094 17.1846 11.5841 17.3757 11.5322C17.5668 11.4803 17.7707 11.5061 17.9429 11.604L18.1549 11.727C18.5329 11.945 19.0079 11.897 19.3339 11.607C19.6927 11.2884 20.1352 11.0794 20.6091 11.0046C21.0831 10.9298 21.5685 10.9924 22.0079 11.185L22.2989 11.313C22.3921 11.3503 22.4769 11.406 22.5482 11.4767C22.6195 11.5475 22.6759 11.6318 22.714 11.7247C22.7521 11.8177 22.7711 11.9173 22.77 12.0177C22.7688 12.1181 22.7475 12.2173 22.7073 12.3093C22.6672 12.4014 22.6089 12.4844 22.536 12.5535C22.4631 12.6226 22.3771 12.6764 22.283 12.7116C22.189 12.7468 22.0888 12.7628 21.9885 12.7585C21.8881 12.7543 21.7897 12.73 21.6989 12.687L21.4069 12.56Z" fill="#57A7E4"/>
<path opacity="0.7" d="M13.5596 4.3965C13.7606 4.1965 13.8616 4.0955 13.9776 4.0585C14.0758 4.02737 14.1813 4.02737 14.2796 4.0585C14.3956 4.0955 14.4966 4.1955 14.6976 4.3965C14.8976 4.5985 14.9986 4.6985 15.0356 4.8145C15.0667 4.91276 15.0667 5.01824 15.0356 5.1165C14.9986 5.2335 14.8986 5.3335 14.6976 5.5345C14.4966 5.7355 14.3956 5.8365 14.2796 5.8735C14.1813 5.90463 14.0758 5.90463 13.9776 5.8735C13.8616 5.8365 13.7606 5.7355 13.5596 5.5345C13.3586 5.3345 13.2576 5.2335 13.2216 5.1165C13.1905 5.01824 13.1905 4.91276 13.2216 4.8145C13.2576 4.6985 13.3586 4.5985 13.5596 4.3965ZM19.0566 15.3135C19.1064 15.2637 19.1656 15.2243 19.2307 15.1974C19.2958 15.1704 19.3655 15.1566 19.4359 15.1567C19.5064 15.1567 19.5761 15.1706 19.6412 15.1976C19.7062 15.2246 19.7653 15.2642 19.8151 15.314C19.8649 15.3638 19.9043 15.423 19.9312 15.4881C19.9581 15.5532 19.972 15.6229 19.9719 15.6934C19.9719 15.7638 19.958 15.8335 19.931 15.8986C19.904 15.9636 19.8644 16.0227 19.8146 16.0725C19.7139 16.173 19.5775 16.2294 19.4352 16.2293C19.293 16.2292 19.1566 16.1727 19.0561 16.072C18.9556 15.9714 18.8992 15.8349 18.8992 15.6926C18.8993 15.5504 18.9559 15.414 19.0566 15.3135Z" fill="#57A7E4"/>
<path opacity="0.5" d="M6.9282 3.94014C6.9781 3.89037 7.03732 3.85092 7.10247 3.82403C7.16762 3.79715 7.23743 3.78335 7.30791 3.78345C7.37839 3.78354 7.44816 3.79751 7.51324 3.82457C7.57832 3.85163 7.63743 3.89124 7.6872 3.94114C7.73697 3.99104 7.77643 4.05026 7.80331 4.11541C7.8302 4.18056 7.84399 4.25037 7.8439 4.32085C7.8438 4.39133 7.82983 4.4611 7.80277 4.52618C7.77571 4.59126 7.7361 4.65037 7.6862 4.70014C7.58542 4.80066 7.44884 4.85702 7.3065 4.85684C7.16416 4.85665 7.02772 4.79992 6.9272 4.69914C6.82669 4.59836 6.77032 4.46178 6.77051 4.31943C6.7707 4.17709 6.82742 4.04066 6.9282 3.94014ZM17.6902 4.72214C17.8851 4.76124 18.0565 4.87609 18.1667 5.04147C18.277 5.20684 18.3171 5.40922 18.2782 5.60414L18.1342 6.32414C18.0367 6.81082 17.8124 7.26314 17.484 7.63538C17.1557 8.00762 16.7349 8.28661 16.2642 8.44414C16.0437 8.51682 15.8465 8.64679 15.6927 8.82075C15.539 8.9947 15.4342 9.20639 15.3892 9.43414L15.2452 10.1541C15.2011 10.344 15.0847 10.5093 14.9208 10.6149C14.7569 10.7204 14.5583 10.758 14.3671 10.7196C14.176 10.6813 14.0073 10.57 13.8968 10.4094C13.7863 10.2487 13.7427 10.0514 13.7752 9.85914L13.9192 9.13914C14.1172 8.14914 14.8312 7.33914 15.7892 7.02014C16.2372 6.87014 16.5712 6.49314 16.6632 6.03014L16.8072 5.31014C16.8266 5.21355 16.8647 5.12171 16.9196 5.03988C16.9745 4.95804 17.0449 4.88782 17.1269 4.83322C17.2089 4.77861 17.3008 4.7407 17.3975 4.72164C17.4942 4.70258 17.5936 4.70275 17.6902 4.72214Z" fill="#57A7E4"/>
<path opacity="0.2" d="M17.5001 9.74168C17.5497 9.69133 17.6088 9.65131 17.674 9.62391C17.7392 9.59651 17.8091 9.58228 17.8798 9.58203C17.9505 9.58179 18.0206 9.59553 18.086 9.62248C18.1513 9.64942 18.2107 9.68903 18.2607 9.73902C18.3107 9.78902 18.3503 9.84841 18.3773 9.91378C18.4042 9.97915 18.4179 10.0492 18.4177 10.1199C18.4175 10.1906 18.4032 10.2606 18.3758 10.3257C18.3484 10.3909 18.3084 10.45 18.2581 10.4997C18.1573 10.599 18.0213 10.6545 17.8798 10.654C17.7383 10.6535 17.6028 10.5971 17.5027 10.497C17.4026 10.397 17.3462 10.2614 17.3457 10.1199C17.3452 9.9784 17.4007 9.84243 17.5001 9.74168Z" fill="#57A7E4"/>
<path opacity="0.5" d="M4.01327 15.7616L5.70327 10.6926C6.46927 8.39456 6.85227 7.24556 7.75827 7.03256C8.66427 6.81756 9.52127 7.67456 11.2333 9.38756L14.6133 12.7666C16.3253 14.4796 17.1823 15.3356 16.9683 16.2416C16.7543 17.1476 15.6053 17.5316 13.3073 18.2966L8.23827 19.9866C5.47327 20.9086 4.09027 21.3696 3.36027 20.6396C2.63027 19.9096 3.09127 18.5266 4.01327 15.7616Z" fill="#57A7E4"/>
<path d="M8.80013 7.50392L8.85013 7.25892C8.45813 7.02892 8.11113 6.94892 7.75713 7.03192C7.61526 7.06564 7.48073 7.12495 7.36013 7.20692L8.05613 7.35092C7.57813 7.25092 7.41513 7.21792 7.36013 7.20692L7.32513 7.23092L7.32013 7.25692C7.27066 7.49958 7.22465 7.74294 7.18213 7.98692C7.06603 8.63119 6.96234 9.27765 6.87113 9.92592C6.65613 11.4589 6.45613 13.4179 6.55913 14.9829C6.62113 15.9309 6.81913 17.1059 6.99413 18.0229C7.09058 18.5255 7.1946 19.0265 7.30613 19.5259L7.32713 19.6189L7.33313 19.6439L7.33513 19.6529L7.47213 20.2409L8.23713 19.9869L8.90113 19.7659L8.79513 19.3059L8.78913 19.2849L8.76913 19.1969L8.69713 18.8669C8.61607 18.4928 8.5394 18.1178 8.46713 17.7419C8.29413 16.8349 8.11213 15.7349 8.05613 14.8849C7.96413 13.4809 8.14413 11.6499 8.35613 10.1349C8.47823 9.27061 8.62295 8.40965 8.79013 7.55292L8.79813 7.51592L8.80013 7.50592V7.50392ZM13.0401 18.3859L11.6161 18.8609L11.5241 18.5829L11.5231 18.5799L11.5211 18.5739L11.5141 18.5519C11.4734 18.4293 11.4351 18.306 11.3991 18.1819C11.3251 17.9349 11.2271 17.5919 11.1291 17.1989C10.9371 16.4289 10.7271 15.4069 10.7271 14.5549C10.7271 13.7029 10.9371 12.6809 11.1291 11.9119C11.243 11.4566 11.3714 11.005 11.5141 10.5579L11.5211 10.5369L11.5231 10.5299L12.2361 10.7639L11.5241 10.5279L11.7361 9.89092L12.9221 11.0779L12.9181 11.0919L12.8361 11.3589C12.7671 11.5889 12.6761 11.9089 12.5841 12.2749C12.3971 13.0249 12.2271 13.8969 12.2271 14.5549C12.2271 15.2129 12.3971 16.0859 12.5841 16.8349C12.6898 17.2562 12.8085 17.674 12.9401 18.0879L12.9461 18.1049L12.9471 18.1089L13.0401 18.3859Z" fill="#57A7E4"/>
</svg>
