<svg width="36" height="36" viewBox="0 0 36 36" fill="none" xmlns="http://www.w3.org/2000/svg">
<path d="M17.5498 0C27.2422 1.0308e-05 35.0995 7.8574 35.0996 17.5498C35.0996 27.2423 27.2423 35.0996 17.5498 35.0996C7.85733 35.0996 0 27.2423 0 17.5498C0.000147858 7.85739 7.85742 0 17.5498 0ZM23.5576 8.69727C22.9103 8.49347 22.3272 8.54333 21.8408 8.81152C21.3775 9.06715 21.0817 9.47684 20.8945 9.84375C20.7074 10.2107 20.6009 10.5882 20.541 10.8643C19.5401 10.6651 18.4335 10.5625 17.2227 10.5625C16.5234 10.5625 15.6303 10.6599 14.6797 10.8643C14.6198 10.5883 14.5151 10.2105 14.3281 9.84375C14.141 9.47693 13.8449 9.06716 13.3818 8.81152C12.8956 8.54338 12.3123 8.49359 11.665 8.69727C10.1205 9.18354 8.81668 9.73031 7.26074 10.7676C6.43102 11.3208 5.77845 12.0964 5.59766 12.9111C5.50393 13.3338 5.53437 13.7926 5.77637 14.2041C6.0175 14.6138 6.41921 14.8927 6.90527 15.0547C7.39774 15.2188 7.85934 15.2553 8.26855 15.2275C7.72736 16.5525 7.33017 18.526 7.6582 20.4697C7.8659 21.7001 8.36812 22.94 9.3291 23.9902C10.292 25.0424 11.6787 25.8642 13.5879 26.3135C17.9466 27.3389 21.3791 26.7257 23.7451 25.1748C26.1098 23.6246 27.3438 21.175 27.3438 18.6953C27.3437 17.4207 27.1125 16.2396 26.6377 15.1924C27.1187 15.2671 27.6932 15.2627 28.3174 15.0547C28.8035 14.8926 29.2052 14.6139 29.4463 14.2041C29.6883 13.7927 29.7187 13.3338 29.625 12.9111C29.4442 12.0964 28.7916 11.3208 27.9619 10.7676C26.4059 9.73022 25.1023 9.18356 23.5576 8.69727Z" fill="#204867"/>
</svg>
