<svg width="20" height="16" viewBox="0 0 20 16" fill="none" xmlns="http://www.w3.org/2000/svg">
<path d="M2.66233 15.9996H17.3377C19.1098 15.9996 20 15.096 20 13.3058V2.69386C20 0.903638 19.1098 0 17.3377 0H2.66233C0.898897 0.0003708 0 0.895481 0 2.69386V13.3061C0 15.1049 0.898897 15.9996 2.66233 15.9996ZM2.68765 14.601C1.83975 14.601 1.36517 14.1404 1.36517 13.2364V2.76431C1.36517 1.8603 1.83975 1.39977 2.68765 1.39977H6.46048V14.601H2.68765ZM17.3124 1.39977C18.1516 1.39977 18.6348 1.8603 18.6348 2.76431V13.2357C18.6348 14.1397 18.1516 14.6002 17.3124 14.6002H7.79164V1.3994L17.3124 1.39977ZM4.8327 4.62424C5.087 4.62424 5.31597 4.38952 5.31597 4.13738C5.31597 3.87671 5.087 3.65089 4.8327 3.65089H3.00959C2.75565 3.65089 2.535 3.87671 2.535 4.13738C2.535 4.38952 2.75565 4.62424 3.00995 4.62424H4.8327ZM4.8327 6.87499C5.087 6.87499 5.31597 6.64028 5.31597 6.3796C5.31597 6.11893 5.087 5.90127 4.8327 5.90127H3.00959C2.75565 5.90127 2.535 6.11893 2.535 6.3796C2.535 6.64028 2.75565 6.87499 3.00995 6.87499H4.8327ZM4.8327 9.11722C5.087 9.11722 5.31597 8.89993 5.31597 8.63889C5.31597 8.37859 5.087 8.1524 4.8327 8.1524H3.00959C2.75565 8.1524 2.535 8.37859 2.535 8.63926C2.535 8.89993 2.75565 9.11722 3.00995 9.11722H4.8327Z" fill="#495057"/>
</svg>
