<svg width="16" height="16" viewBox="0 0 16 16" fill="none" xmlns="http://www.w3.org/2000/svg">
<path d="M8 0C12.4183 0 16 3.58172 16 8C16 12.4183 12.4183 16 8 16C3.58172 16 0 12.4183 0 8C0 3.58172 3.58172 0 8 0ZM10.8896 3.80859C10.6053 3.71908 10.3615 3.74415 10.1631 3.85352C9.97119 3.95939 9.84395 4.13198 9.75977 4.29688C9.67507 4.46288 9.62624 4.63632 9.59863 4.76465C9.58731 4.81731 9.57977 4.86375 9.57422 4.90039C9.05976 4.78554 8.48109 4.72559 7.83789 4.72559C7.47215 4.72561 6.99042 4.78209 6.48242 4.90234C6.47686 4.86541 6.46953 4.81826 6.45801 4.76465C6.4304 4.63631 6.38159 4.46293 6.29688 4.29688C6.21272 4.13197 6.08544 3.95944 5.89355 3.85352C5.69518 3.74409 5.4513 3.71917 5.16699 3.80859C4.42256 4.04298 3.79861 4.30456 3.05273 4.80176C2.66537 5.06 2.37833 5.41173 2.30078 5.76074C2.2611 5.93959 2.2758 6.12543 2.37207 6.28906C2.46802 6.45201 2.63146 6.56947 2.84473 6.64062C3.17175 6.74958 3.46861 6.73466 3.70508 6.68262C3.40237 7.28754 3.13232 8.35262 3.30859 9.39746C3.40637 9.97633 3.64158 10.5551 4.08887 11.0439C4.53678 11.5334 5.18693 11.9219 6.0957 12.1357C8.19605 12.6299 9.83023 12.3296 10.9453 11.5986C12.0596 10.8679 12.6376 9.71701 12.6377 8.55469C12.6376 7.83634 12.4852 7.1854 12.1689 6.63184C12.4251 6.71691 12.7938 6.78 13.2119 6.64062C13.4251 6.56947 13.5887 6.45195 13.6846 6.28906C13.7807 6.12549 13.7955 5.93951 13.7559 5.76074C13.6783 5.4117 13.3913 5.06002 13.0039 4.80176C12.2579 4.30445 11.6341 4.043 10.8896 3.80859Z" fill="#212529"/>
</svg>
