<svg width="7" height="4" viewBox="0 0 7 4" fill="none" xmlns="http://www.w3.org/2000/svg">
<path fill-rule="evenodd" clip-rule="evenodd" d="M6.41677 4C6.53213 3.99998 6.64489 3.96645 6.7408 3.90366C6.83671 3.84086 6.91146 3.75162 6.9556 3.64722C6.99974 3.54282 7.0113 3.42794 6.9888 3.3171C6.9663 3.20627 6.91076 3.10446 6.8292 3.02454L3.91243 0.167312C3.80304 0.0601821 3.65468 0 3.5 0C3.34532 0 3.19696 0.0601821 3.08757 0.167312L0.170799 3.02454C0.0892403 3.10446 0.0337009 3.20627 0.0112024 3.3171C-0.0112961 3.42794 0.000256164 3.54282 0.0443986 3.64722C0.088541 3.75162 0.163292 3.84086 0.259201 3.90366C0.35511 3.96645 0.467871 3.99998 0.58323 4H6.41677Z" fill="#4791CA" fill-opacity="0.6"/>
</svg>
