<svg width="7" height="4" viewBox="0 0 7 4" fill="none" xmlns="http://www.w3.org/2000/svg">
<path fill-rule="evenodd" clip-rule="evenodd" d="M6.41677 0C6.53213 2.40803e-05 6.64489 0.0335519 6.7408 0.0963447C6.83671 0.159138 6.91146 0.248377 6.9556 0.35278C6.99974 0.457183 7.0113 0.572062 6.9888 0.682896C6.9663 0.79373 6.91076 0.89554 6.8292 0.975458L3.91243 3.83269C3.80304 3.93982 3.65468 4 3.5 4C3.34532 4 3.19696 3.93982 3.08757 3.83269L0.170799 0.975458C0.0892403 0.89554 0.0337009 0.79373 0.0112024 0.682896C-0.0112961 0.572062 0.000256164 0.457183 0.0443986 0.35278C0.088541 0.248377 0.163292 0.159138 0.259201 0.0963447C0.35511 0.0335519 0.467871 2.40803e-05 0.58323 0H6.41677Z" fill="#4791CA" fill-opacity="0.6"/>
</svg>
