<svg width="286" height="55" viewBox="0 0 286 55" fill="none" xmlns="http://www.w3.org/2000/svg">
<path d="M0 34.4712V-3.8147e-06H9.84893V19.6978H14.7734V34.4712H9.84893V44.3202H4.92446V34.4712H0ZM19.6979 34.4712V19.6978H14.7734V-3.8147e-06H19.6979V19.6978H24.6223V-3.8147e-06H34.4712V34.4712H29.5468V44.3202H24.6223V34.4712H19.6979ZM39.4149 9.84892V-3.8147e-06H49.2639V9.84892H39.4149ZM39.4149 44.3202V14.7734H49.2639V44.3202H39.4149ZM54.1883 14.7734V9.84892H59.1128V-3.8147e-06H68.9617V9.84892H78.8106V14.7734H68.9617V39.3957H78.8106V44.3202H64.0372V39.3957H59.1128V14.7734H54.1883ZM83.7351 44.3202V-3.8147e-06H93.584V9.84892H108.357V14.7734H113.282V44.3202H103.433V14.7734H93.584V44.3202H83.7351ZM118.187 44.3202V-3.8147e-06H142.809V4.92446H147.734V19.6978H142.809V24.6223H147.734V39.3957H142.809V44.3202H118.187ZM128.036 19.6978H137.885V4.92446H128.036V19.6978ZM128.036 39.3957H137.885V24.6223H128.036V39.3957ZM152.639 39.3957V9.84892H162.488V39.3957H172.337V9.84892H182.186V44.3202H157.564V39.3957H152.639ZM187.091 39.3957V14.7734H192.016V9.84892H206.789V-3.8147e-06H216.638V44.3202H192.016V39.3957H187.091ZM196.94 39.3957H206.789V14.7734H196.94V39.3957ZM221.543 39.3957V14.7734H226.468V9.84892H241.241V-3.8147e-06H251.09V44.3202H226.468V39.3957H221.543ZM231.392 39.3957H241.241V14.7734H231.392V39.3957ZM255.995 24.6223V9.84892H265.844V24.6223H275.693V9.84892H285.542V24.6223H280.617V34.4712H275.693V49.2446H270.769V54.1691H260.92V49.2446H265.844V34.4712H260.92V24.6223H255.995Z" fill="#4594CD"/>
</svg>
