<svg width="143" height="28" viewBox="0 0 143 28" fill="none" xmlns="http://www.w3.org/2000/svg">
<path d="M0 17.2307V-3.91006e-05H4.92308V9.84611H7.38462V17.2307H4.92308V22.1538H2.46154V17.2307H0ZM9.84615 17.2307V9.84611H7.38462V-3.91006e-05H9.84615V9.84611H12.3077V-3.91006e-05H17.2308V17.2307H14.7692V22.1538H12.3077V17.2307H9.84615ZM19.7019 4.92304V-3.91006e-05H24.625V4.92304H19.7019ZM19.7019 22.1538V7.38458H24.625V22.1538H19.7019ZM27.0865 7.38458V4.92304H29.5481V-3.91006e-05H34.4712V4.92304H39.3942V7.38458H34.4712V19.6923H39.3942V22.1538H32.0096V19.6923H29.5481V7.38458H27.0865ZM41.8558 22.1538V-3.91006e-05H46.7789V4.92304H54.1635V7.38458H56.625V22.1538H51.7019V7.38458H46.7789V22.1538H41.8558ZM59.0769 22.1538V-3.91006e-05H71.3846V2.4615H73.8462V9.84611H71.3846V12.3077H73.8462V19.6923H71.3846V22.1538H59.0769ZM64 9.84611H68.9231V2.4615H64V9.84611ZM64 19.6923H68.9231V12.3077H64V19.6923ZM76.2981 19.6923V4.92304H81.2212V19.6923H86.1442V4.92304H91.0673V22.1538H78.7596V19.6923H76.2981ZM93.5192 19.6923V7.38458H95.9808V4.92304H103.365V-3.91006e-05H108.288V22.1538H95.9808V19.6923H93.5192ZM98.4423 19.6923H103.365V7.38458H98.4423V19.6923ZM110.74 19.6923V7.38458H113.202V4.92304H120.587V-3.91006e-05H125.51V22.1538H113.202V19.6923H110.74ZM115.663 19.6923H120.587V7.38458H115.663V19.6923ZM127.962 12.3077V4.92304H132.885V12.3077H137.808V4.92304H142.731V12.3077H140.269V17.2307H137.808V24.6153H135.346V27.0769H130.423V24.6153H132.885V17.2307H130.423V12.3077H127.962Z" fill="#204867"/>
</svg>
