<svg width="214" height="39" viewBox="0 0 214 39" fill="none" xmlns="http://www.w3.org/2000/svg">
<path d="M8.16406 30.0781L0 1.79688H7.34375L11.6797 20.5469H11.9141L16.8359 1.79688H22.8906L27.8516 20.5859H28.0469L32.4219 1.79688H39.7656L31.5625 30.0781H25.1562L20 12.6562H19.7656L14.6094 30.0781H8.16406ZM42.5391 30.0781V8.86719H49.1406V30.0781H42.5391ZM45.8594 6.32812C43.9844 6.32812 42.4609 4.92188 42.4609 3.16406C42.4609 1.40625 43.9844 0 45.8594 0C47.7344 0 49.2969 1.40625 49.2969 3.16406C49.2969 4.92188 47.7344 6.32812 45.8594 6.32812ZM65.1953 8.86719V13.7109H61.3281V23.4375C61.3281 24.7656 61.9922 25.1562 63.125 25.1953C63.6719 25.2344 64.7266 25.1562 65.4688 25.1172V30.1562C64.8438 30.2344 63.75 30.3906 62.1875 30.3906C57.5391 30.3906 54.7266 28.4766 54.7656 24.1797V13.7109H51.9141V8.86719H54.7656V3.78906H61.3281V8.86719H65.1953ZM75.6641 17.9297V30.0781H69.0625V1.79688H75.4297V12.7344H75.6641C76.6406 10.1562 78.8672 8.59375 82.0312 8.59375C86.4844 8.59375 89.4141 11.7188 89.4141 16.5625V30.0781H82.8125V17.8125C82.8516 15.4297 81.5625 13.9844 79.3359 13.9844C77.1484 13.9844 75.6641 15.4688 75.6641 17.9297ZM93.5938 30.0781V1.79688H105.273C111.602 1.79688 114.883 4.6875 114.883 8.98438C114.883 12.2266 112.695 14.4531 109.609 15.0781V15.3516C113.008 15.5078 115.977 18.0859 115.977 22.1875C115.977 26.7578 112.422 30.0781 106.172 30.0781H93.5938ZM104.609 24.6875C107.656 24.6875 109.023 23.4766 109.023 21.4453C109.023 19.2188 107.383 17.8125 104.727 17.8125H100.234V24.6875H104.609ZM104.18 13.4766C106.445 13.4766 108.086 12.2656 108.086 10.2344C108.086 8.32031 106.641 7.10938 104.258 7.10938H100.234V13.4766H104.18ZM132.891 20.9375V8.86719H139.453V30.0781H133.203V26.1719H132.969C132.031 28.7109 129.688 30.3516 126.484 30.3516C122.148 30.3516 119.219 27.2266 119.219 22.3828V8.86719H125.82V21.1328C125.82 23.4375 127.109 24.8828 129.219 24.8828C131.25 24.8828 132.891 23.4766 132.891 20.9375ZM151.484 30.3906C146.758 30.3906 142.969 26.6797 142.969 19.4922C142.969 12.0312 146.992 8.59375 151.445 8.59375C154.844 8.59375 156.641 10.5859 157.461 12.5H157.617V1.79688H164.18V30.0781H157.656V26.6406H157.461C156.602 28.5547 154.727 30.3906 151.484 30.3906ZM153.711 25.2344C156.25 25.2344 157.734 22.9688 157.734 19.4531C157.734 15.9375 156.289 13.75 153.711 13.75C151.133 13.75 149.727 16.0156 149.727 19.4531C149.727 22.9688 151.172 25.2344 153.711 25.2344ZM176.211 30.3906C171.484 30.3906 167.695 26.6797 167.695 19.4922C167.695 12.0312 171.719 8.59375 176.172 8.59375C179.57 8.59375 181.367 10.5859 182.188 12.5H182.344V1.79688H188.906V30.0781H182.383V26.6406H182.188C181.328 28.5547 179.453 30.3906 176.211 30.3906ZM178.438 25.2344C180.977 25.2344 182.461 22.9688 182.461 19.4531C182.461 15.9375 181.016 13.75 178.438 13.75C175.859 13.75 174.453 16.0156 174.453 19.4531C174.453 22.9688 175.898 25.2344 178.438 25.2344ZM196.992 38.0469C195.742 38.0469 194.57 38.0078 193.711 37.9297V32.9297C194.57 33.0078 195.508 33.0078 196.289 33.0078C197.383 33.0078 198.203 32.8906 198.789 31.4844L199.023 30.8203L191.484 8.86719H198.359L202.383 24.1016H202.617L206.641 8.86719H213.594L205.547 32.1484C204.375 35.625 201.953 38.0469 196.992 38.0469Z" fill="#204867"/>
</svg>
