<svg width="301" height="55" viewBox="0 0 301 55" fill="none" xmlns="http://www.w3.org/2000/svg">
<path d="M0 34.4712V-3.8147e-06H9.84893V19.6978H14.7734V34.4712H9.84893V44.3202H4.92446V34.4712H0ZM19.6979 34.4712V19.6978H14.7734V-3.8147e-06H19.6979V19.6978H24.6223V-3.8147e-06H34.4712V34.4712H29.5468V44.3202H24.6223V34.4712H19.6979ZM39.4149 9.84892V-3.8147e-06H49.2639V9.84892H39.4149ZM39.4149 44.3202V14.7734H49.2639V44.3202H39.4149ZM54.1883 14.7734V9.84892H59.1128V-3.8147e-06H68.9617V9.84892H78.8106V14.7734H68.9617V39.3957H78.8106V44.3202H64.0372V39.3957H59.1128V14.7734H54.1883ZM83.7351 44.3202V-3.8147e-06H93.584V9.84892H108.357V14.7734H113.282V44.3202H103.433V14.7734H93.584V44.3202H83.7351ZM132.96 44.3202V-3.8147e-06H157.583V4.92446H162.507V19.6978H157.583V24.6223H162.507V39.3957H157.583V44.3202H132.96ZM142.809 19.6978H152.658V4.92446H142.809V19.6978ZM142.809 39.3957H152.658V24.6223H142.809V39.3957ZM167.412 39.3957V9.84892H177.261V39.3957H187.11V9.84892H196.959V44.3202H172.337V39.3957H167.412ZM201.865 39.3957V14.7734H206.789V9.84892H221.562V-3.8147e-06H231.411V44.3202H206.789V39.3957H201.865ZM211.713 39.3957H221.562V14.7734H211.713V39.3957ZM236.316 39.3957V14.7734H241.241V9.84892H256.014V-3.8147e-06H265.863V44.3202H241.241V39.3957H236.316ZM246.165 39.3957H256.014V14.7734H246.165V39.3957ZM270.768 24.6223V9.84892H280.617V24.6223H290.466V9.84892H300.315V24.6223H295.391V34.4712H290.466V49.2446H285.542V54.1691H275.693V49.2446H280.617V34.4712H275.693V24.6223H270.768Z" fill="#4594CD"/>
</svg>
