<svg xmlns="http://www.w3.org/2000/svg" width="1000" height="520" viewBox="0 0 1000 520">
  <rect x="0" y="0" width="1000" height="520" fill="#ffffff"/>
  <g stroke="#111111" stroke-width="2" fill="none">
    <rect x="40" y="30" width="920" height="70"/>
    <rect x="40" y="130" width="920" height="330"/>
    <rect x="80" y="180" width="360" height="230"/>
    <rect x="520" y="180" width="360" height="230"/>
    <rect x="120" y="230" width="280" height="60"/>
    <rect x="120" y="310" width="280" height="60"/>
    <rect x="560" y="230" width="280" height="60"/>
    <rect x="560" y="310" width="280" height="60"/>
  </g>
  <g font-family="Arial, sans-serif" font-size="16" fill="#111111">
    <text x="500" y="70" text-anchor="middle">Users / Frontend</text>
    <text x="500" y="155" text-anchor="middle">Oracle Cloud</text>
    <text x="260" y="210" text-anchor="middle">Tenancy A (AI)</text>
    <text x="700" y="210" text-anchor="middle">Tenancy B (Core)</text>
    <text x="260" y="265" text-anchor="middle">AI Server :8000</text>
    <text x="260" y="345" text-anchor="middle">Vector DB (Local)</text>
    <text x="700" y="265" text-anchor="middle">Backend :8080</text>
    <text x="700" y="345" text-anchor="middle">MySQL / Redis</text>
    <text x="500" y="265" text-anchor="middle">LPG</text>
  </g>
  <g stroke="#111111" stroke-width="2" fill="none">
    <line x1="500" y1="100" x2="500" y2="130"/>
    <line x1="440" y1="265" x2="520" y2="265"/>
  </g>
</svg>
